<svg xmlns="http://www.w3.org/2000/svg" version="1.1" xmlns:xlink="http://www.w3.org/1999/xlink" xmlns:svgjs="http://svgjs.dev/svgjs" width="2000" height="900" preserveAspectRatio="none" viewBox="0 0 2000 900"><g mask="url(&quot;#SvgjsMask1860&quot;)" fill="none"><rect width="2000" height="900" x="0" y="0" fill="url(&quot;#SvgjsLinearGradient1861&quot;)"></rect><path d="M2000 0L1958.01 0L2000 293.9z" fill="rgba(255, 255, 255, .1)"></path><path d="M1958.01 0L2000 293.9L2000 555.42L1335.12 0z" fill="rgba(255, 255, 255, .075)"></path><path d="M1335.12 0L2000 555.42L2000 734.63L1156.4399999999998 0z" fill="rgba(255, 255, 255, .05)"></path><path d="M1156.44 0L2000 734.63L2000 758.59L336.46000000000004 0z" fill="rgba(255, 255, 255, .025)"></path><path d="M0 900L727.8 900L0 570.9200000000001z" fill="rgba(0, 0, 0, .1)"></path><path d="M0 570.9200000000001L727.8 900L902.91 900L0 377.7200000000001z" fill="rgba(0, 0, 0, .075)"></path><path d="M0 377.72L902.91 900L999.3499999999999 900L0 367.33000000000004z" fill="rgba(0, 0, 0, .05)"></path><path d="M0 367.33000000000004L999.3499999999999 900L1359.8899999999999 900L0 208.56000000000003z" fill="rgba(0, 0, 0, .025)"></path></g><defs><mask id="SvgjsMask1860"><rect width="2000" height="900" fill="#ffffff"></rect></mask><linearGradient x1="13.75%" y1="-30.56%" x2="86.25%" y2="130.56%" gradientUnits="userSpaceOnUse" id="SvgjsLinearGradient1861"><stop stop-color="rgba(55, 169, 188, 1)" offset="0"></stop><stop stop-color="rgba(0, 158, 72, 1)" offset="1"></stop></linearGradient></defs></svg>